<?xml version="1.0" encoding="utf-8" standalone="no"?>
<!DOCTYPE svg PUBLIC "-//W3C//DTD SVG 1.1//EN"
  "http://www.w3.org/Graphics/SVG/1.1/DTD/svg11.dtd">
<svg xmlns:xlink="http://www.w3.org/1999/xlink" width="460.8pt" height="345.6pt" viewBox="0 0 460.8 345.6" xmlns="http://www.w3.org/2000/svg" version="1.1">
 <metadata>
  <rdf:RDF xmlns:dc="http://purl.org/dc/elements/1.1/" xmlns:cc="http://creativecommons.org/ns#" xmlns:rdf="http://www.w3.org/1999/02/22-rdf-syntax-ns#">
   <cc:Work>
    <dc:type rdf:resource="http://purl.org/dc/dcmitype/StillImage"/>
    <dc:date>2022-03-17T11:22:41.616328</dc:date>
    <dc:format>image/svg+xml</dc:format>
    <dc:creator>
     <cc:Agent>
      <dc:title>Matplotlib v3.5.0, https://matplotlib.org/</dc:title>
     </cc:Agent>
    </dc:creator>
   </cc:Work>
  </rdf:RDF>
 </metadata>
 <defs>
  <style type="text/css">*{stroke-linejoin: round; stroke-linecap: butt}</style>
 </defs>
 <g id="figure_1">
  <g id="patch_1">
   <path d="M 0 345.6 
L 460.8 345.6 
L 460.8 0 
L 0 0 
z
" style="fill: #ffffff"/>
  </g>
  <g id="axes_1">
   <g id="patch_2">
    <path d="M 57.6 307.584 
L 414.72 307.584 
L 414.72 41.472 
L 57.6 41.472 
z
" style="fill: #ffffff"/>
   </g>
   <g id="PathCollection_1">
    <defs>
     <path id="mbbe2b74c2f" d="M 0 3 
C 0.795609 3 1.55874 2.683901 2.12132 2.12132 
C 2.683901 1.55874 3 0.795609 3 0 
C 3 -0.795609 2.683901 -1.55874 2.12132 -2.12132 
C 1.55874 -2.683901 0.795609 -3 0 -3 
C -0.795609 -3 -1.55874 -2.683901 -2.12132 -2.12132 
C -2.683901 -1.55874 -3 -0.795609 -3 0 
C -3 0.795609 -2.683901 1.55874 -2.12132 2.12132 
C -1.55874 2.683901 -0.795609 3 0 3 
z
" style="stroke: #1f77b4"/>
    </defs>
    <g clip-path="url(#p0e9cbee891)">
     <use xlink:href="#mbbe2b74c2f" x="73.832727" y="289.688997" style="fill: #1f77b4; stroke: #1f77b4"/>
     <use xlink:href="#mbbe2b74c2f" x="78.106101" y="284.465519" style="fill: #1f77b4; stroke: #1f77b4"/>
     <use xlink:href="#mbbe2b74c2f" x="83.44315" y="275.124195" style="fill: #1f77b4; stroke: #1f77b4"/>
     <use xlink:href="#mbbe2b74c2f" x="81.86121" y="277.799303" style="fill: #1f77b4; stroke: #1f77b4"/>
     <use xlink:href="#mbbe2b74c2f" x="105.577051" y="272.169391" style="fill: #1f77b4; stroke: #1f77b4"/>
     <use xlink:href="#mbbe2b74c2f" x="95.967151" y="264.990518" style="fill: #1f77b4; stroke: #1f77b4"/>
     <use xlink:href="#mbbe2b74c2f" x="110.018582" y="256.165193" style="fill: #1f77b4; stroke: #1f77b4"/>
     <use xlink:href="#mbbe2b74c2f" x="115.840732" y="255.201747" style="fill: #1f77b4; stroke: #1f77b4"/>
     <use xlink:href="#mbbe2b74c2f" x="118.853603" y="246.675034" style="fill: #1f77b4; stroke: #1f77b4"/>
     <use xlink:href="#mbbe2b74c2f" x="140.639786" y="241.97638" style="fill: #1f77b4; stroke: #1f77b4"/>
     <use xlink:href="#mbbe2b74c2f" x="137.395848" y="242.563349" style="fill: #1f77b4; stroke: #1f77b4"/>
     <use xlink:href="#mbbe2b74c2f" x="139.145486" y="236.146093" style="fill: #1f77b4; stroke: #1f77b4"/>
     <use xlink:href="#mbbe2b74c2f" x="155.370688" y="234.997396" style="fill: #1f77b4; stroke: #1f77b4"/>
     <use xlink:href="#mbbe2b74c2f" x="165.42508" y="226.781748" style="fill: #1f77b4; stroke: #1f77b4"/>
     <use xlink:href="#mbbe2b74c2f" x="170.501993" y="224.603728" style="fill: #1f77b4; stroke: #1f77b4"/>
     <use xlink:href="#mbbe2b74c2f" x="160.404395" y="213.989257" style="fill: #1f77b4; stroke: #1f77b4"/>
     <use xlink:href="#mbbe2b74c2f" x="191.742683" y="212.778667" style="fill: #1f77b4; stroke: #1f77b4"/>
     <use xlink:href="#mbbe2b74c2f" x="173.572645" y="204.731719" style="fill: #1f77b4; stroke: #1f77b4"/>
     <use xlink:href="#mbbe2b74c2f" x="202.256939" y="205.69371" style="fill: #1f77b4; stroke: #1f77b4"/>
     <use xlink:href="#mbbe2b74c2f" x="205.547457" y="198.55536" style="fill: #1f77b4; stroke: #1f77b4"/>
     <use xlink:href="#mbbe2b74c2f" x="217.913209" y="193.038573" style="fill: #1f77b4; stroke: #1f77b4"/>
     <use xlink:href="#mbbe2b74c2f" x="220.417877" y="185.06045" style="fill: #1f77b4; stroke: #1f77b4"/>
     <use xlink:href="#mbbe2b74c2f" x="205.938467" y="185.991262" style="fill: #1f77b4; stroke: #1f77b4"/>
     <use xlink:href="#mbbe2b74c2f" x="221.916865" y="176.136025" style="fill: #1f77b4; stroke: #1f77b4"/>
     <use xlink:href="#mbbe2b74c2f" x="215.588121" y="175.024542" style="fill: #1f77b4; stroke: #1f77b4"/>
     <use xlink:href="#mbbe2b74c2f" x="244.555579" y="168.620401" style="fill: #1f77b4; stroke: #1f77b4"/>
     <use xlink:href="#mbbe2b74c2f" x="249.615148" y="167.785211" style="fill: #1f77b4; stroke: #1f77b4"/>
     <use xlink:href="#mbbe2b74c2f" x="234.047034" y="156.615421" style="fill: #1f77b4; stroke: #1f77b4"/>
     <use xlink:href="#mbbe2b74c2f" x="257.227491" y="157.215913" style="fill: #1f77b4; stroke: #1f77b4"/>
     <use xlink:href="#mbbe2b74c2f" x="263.186029" y="151.577209" style="fill: #1f77b4; stroke: #1f77b4"/>
     <use xlink:href="#mbbe2b74c2f" x="279.653406" y="147.013307" style="fill: #1f77b4; stroke: #1f77b4"/>
     <use xlink:href="#mbbe2b74c2f" x="271.274653" y="141.615362" style="fill: #1f77b4; stroke: #1f77b4"/>
     <use xlink:href="#mbbe2b74c2f" x="284.903178" y="134.909428" style="fill: #1f77b4; stroke: #1f77b4"/>
     <use xlink:href="#mbbe2b74c2f" x="280.342533" y="128.200226" style="fill: #1f77b4; stroke: #1f77b4"/>
     <use xlink:href="#mbbe2b74c2f" x="298.076097" y="126.945043" style="fill: #1f77b4; stroke: #1f77b4"/>
     <use xlink:href="#mbbe2b74c2f" x="292.120358" y="120.93749" style="fill: #1f77b4; stroke: #1f77b4"/>
     <use xlink:href="#mbbe2b74c2f" x="310.429163" y="119.669827" style="fill: #1f77b4; stroke: #1f77b4"/>
     <use xlink:href="#mbbe2b74c2f" x="317.103922" y="109.705481" style="fill: #1f77b4; stroke: #1f77b4"/>
     <use xlink:href="#mbbe2b74c2f" x="322.569115" y="105.727566" style="fill: #1f77b4; stroke: #1f77b4"/>
     <use xlink:href="#mbbe2b74c2f" x="336.944015" y="100.074955" style="fill: #1f77b4; stroke: #1f77b4"/>
     <use xlink:href="#mbbe2b74c2f" x="338.942312" y="96.864224" style="fill: #1f77b4; stroke: #1f77b4"/>
     <use xlink:href="#mbbe2b74c2f" x="333.416801" y="90.697511" style="fill: #1f77b4; stroke: #1f77b4"/>
     <use xlink:href="#mbbe2b74c2f" x="354.906896" y="86.561909" style="fill: #1f77b4; stroke: #1f77b4"/>
     <use xlink:href="#mbbe2b74c2f" x="334.845047" y="81.754378" style="fill: #1f77b4; stroke: #1f77b4"/>
     <use xlink:href="#mbbe2b74c2f" x="367.674042" y="77.286169" style="fill: #1f77b4; stroke: #1f77b4"/>
     <use xlink:href="#mbbe2b74c2f" x="351.989356" y="71.126367" style="fill: #1f77b4; stroke: #1f77b4"/>
     <use xlink:href="#mbbe2b74c2f" x="374.901279" y="66.305737" style="fill: #1f77b4; stroke: #1f77b4"/>
     <use xlink:href="#mbbe2b74c2f" x="386.693017" y="64.923725" style="fill: #1f77b4; stroke: #1f77b4"/>
     <use xlink:href="#mbbe2b74c2f" x="371.572663" y="64.003286" style="fill: #1f77b4; stroke: #1f77b4"/>
     <use xlink:href="#mbbe2b74c2f" x="398.487273" y="53.568" style="fill: #1f77b4; stroke: #1f77b4"/>
     <use xlink:href="#mbbe2b74c2f" x="93.014151" y="83.964687" style="fill: #1f77b4; stroke: #1f77b4"/>
     <use xlink:href="#mbbe2b74c2f" x="145.675606" y="227.377849" style="fill: #1f77b4; stroke: #1f77b4"/>
     <use xlink:href="#mbbe2b74c2f" x="159.474118" y="103.927853" style="fill: #1f77b4; stroke: #1f77b4"/>
     <use xlink:href="#mbbe2b74c2f" x="201.215338" y="240.961122" style="fill: #1f77b4; stroke: #1f77b4"/>
     <use xlink:href="#mbbe2b74c2f" x="96.07859" y="173.327761" style="fill: #1f77b4; stroke: #1f77b4"/>
     <use xlink:href="#mbbe2b74c2f" x="197.053371" y="177.702808" style="fill: #1f77b4; stroke: #1f77b4"/>
     <use xlink:href="#mbbe2b74c2f" x="340.93651" y="141.026907" style="fill: #1f77b4; stroke: #1f77b4"/>
     <use xlink:href="#mbbe2b74c2f" x="203.241975" y="200.995522" style="fill: #1f77b4; stroke: #1f77b4"/>
     <use xlink:href="#mbbe2b74c2f" x="181.31158" y="124.327049" style="fill: #1f77b4; stroke: #1f77b4"/>
     <use xlink:href="#mbbe2b74c2f" x="91.995478" y="152.144345" style="fill: #1f77b4; stroke: #1f77b4"/>
     <use xlink:href="#mbbe2b74c2f" x="376.669812" y="56.403117" style="fill: #1f77b4; stroke: #1f77b4"/>
     <use xlink:href="#mbbe2b74c2f" x="291.594169" y="207.030961" style="fill: #1f77b4; stroke: #1f77b4"/>
     <use xlink:href="#mbbe2b74c2f" x="198.201369" y="148.392492" style="fill: #1f77b4; stroke: #1f77b4"/>
     <use xlink:href="#mbbe2b74c2f" x="189.243262" y="247.046827" style="fill: #1f77b4; stroke: #1f77b4"/>
     <use xlink:href="#mbbe2b74c2f" x="280.309221" y="275.997594" style="fill: #1f77b4; stroke: #1f77b4"/>
     <use xlink:href="#mbbe2b74c2f" x="86.274395" y="226.431011" style="fill: #1f77b4; stroke: #1f77b4"/>
     <use xlink:href="#mbbe2b74c2f" x="230.413541" y="242.220635" style="fill: #1f77b4; stroke: #1f77b4"/>
     <use xlink:href="#mbbe2b74c2f" x="175.193647" y="212.050872" style="fill: #1f77b4; stroke: #1f77b4"/>
     <use xlink:href="#mbbe2b74c2f" x="366.381177" y="205.344171" style="fill: #1f77b4; stroke: #1f77b4"/>
     <use xlink:href="#mbbe2b74c2f" x="172.407719" y="109.259406" style="fill: #1f77b4; stroke: #1f77b4"/>
     <use xlink:href="#mbbe2b74c2f" x="90.060781" y="163.747005" style="fill: #1f77b4; stroke: #1f77b4"/>
     <use xlink:href="#mbbe2b74c2f" x="131.481792" y="274.427176" style="fill: #1f77b4; stroke: #1f77b4"/>
     <use xlink:href="#mbbe2b74c2f" x="242.07578" y="176.808178" style="fill: #1f77b4; stroke: #1f77b4"/>
     <use xlink:href="#mbbe2b74c2f" x="218.997929" y="219.769676" style="fill: #1f77b4; stroke: #1f77b4"/>
     <use xlink:href="#mbbe2b74c2f" x="354.410365" y="268.191857" style="fill: #1f77b4; stroke: #1f77b4"/>
     <use xlink:href="#mbbe2b74c2f" x="320.089217" y="284.588527" style="fill: #1f77b4; stroke: #1f77b4"/>
     <use xlink:href="#mbbe2b74c2f" x="205.958481" y="70.653337" style="fill: #1f77b4; stroke: #1f77b4"/>
     <use xlink:href="#mbbe2b74c2f" x="300.472935" y="120.737768" style="fill: #1f77b4; stroke: #1f77b4"/>
     <use xlink:href="#mbbe2b74c2f" x="223.943837" y="194.70034" style="fill: #1f77b4; stroke: #1f77b4"/>
     <use xlink:href="#mbbe2b74c2f" x="344.56881" y="173.311984" style="fill: #1f77b4; stroke: #1f77b4"/>
     <use xlink:href="#mbbe2b74c2f" x="210.405282" y="248.417606" style="fill: #1f77b4; stroke: #1f77b4"/>
     <use xlink:href="#mbbe2b74c2f" x="268.418691" y="198.037496" style="fill: #1f77b4; stroke: #1f77b4"/>
     <use xlink:href="#mbbe2b74c2f" x="307.26027" y="90.331772" style="fill: #1f77b4; stroke: #1f77b4"/>
     <use xlink:href="#mbbe2b74c2f" x="183.411324" y="193.864151" style="fill: #1f77b4; stroke: #1f77b4"/>
     <use xlink:href="#mbbe2b74c2f" x="365.376974" y="110.86451" style="fill: #1f77b4; stroke: #1f77b4"/>
     <use xlink:href="#mbbe2b74c2f" x="173.60843" y="80.909246" style="fill: #1f77b4; stroke: #1f77b4"/>
     <use xlink:href="#mbbe2b74c2f" x="118.960535" y="242.75599" style="fill: #1f77b4; stroke: #1f77b4"/>
     <use xlink:href="#mbbe2b74c2f" x="281.97777" y="114.512916" style="fill: #1f77b4; stroke: #1f77b4"/>
     <use xlink:href="#mbbe2b74c2f" x="231.455143" y="212.157646" style="fill: #1f77b4; stroke: #1f77b4"/>
     <use xlink:href="#mbbe2b74c2f" x="354.599725" y="132.579563" style="fill: #1f77b4; stroke: #1f77b4"/>
     <use xlink:href="#mbbe2b74c2f" x="270.700857" y="158.604683" style="fill: #1f77b4; stroke: #1f77b4"/>
     <use xlink:href="#mbbe2b74c2f" x="104.358935" y="272.803359" style="fill: #1f77b4; stroke: #1f77b4"/>
     <use xlink:href="#mbbe2b74c2f" x="280.949292" y="149.096571" style="fill: #1f77b4; stroke: #1f77b4"/>
     <use xlink:href="#mbbe2b74c2f" x="330.531879" y="168.095919" style="fill: #1f77b4; stroke: #1f77b4"/>
     <use xlink:href="#mbbe2b74c2f" x="300.863647" y="287.937891" style="fill: #1f77b4; stroke: #1f77b4"/>
     <use xlink:href="#mbbe2b74c2f" x="269.741468" y="85.957486" style="fill: #1f77b4; stroke: #1f77b4"/>
     <use xlink:href="#mbbe2b74c2f" x="225.878289" y="264.724012" style="fill: #1f77b4; stroke: #1f77b4"/>
     <use xlink:href="#mbbe2b74c2f" x="196.726332" y="67.243842" style="fill: #1f77b4; stroke: #1f77b4"/>
     <use xlink:href="#mbbe2b74c2f" x="198.869966" y="163.05411" style="fill: #1f77b4; stroke: #1f77b4"/>
     <use xlink:href="#mbbe2b74c2f" x="361.98127" y="140.856058" style="fill: #1f77b4; stroke: #1f77b4"/>
    </g>
   </g>
   <g id="matplotlib.axis_1">
    <g id="xtick_1">
     <g id="line2d_1">
      <defs>
       <path id="mce6f14ec86" d="M 0 0 
L 0 3.5 
" style="stroke: #000000; stroke-width: 0.8"/>
      </defs>
      <g>
       <use xlink:href="#mce6f14ec86" x="77.592318" y="307.584" style="stroke: #000000; stroke-width: 0.8"/>
      </g>
     </g>
     <g id="text_1">
      <!-- 0 -->
      <g transform="translate(74.411068 322.182437)scale(0.1 -0.1)">
       <defs>
        <path id="DejaVuSans-30" d="M 2034 4250 
Q 1547 4250 1301 3770 
Q 1056 3291 1056 2328 
Q 1056 1369 1301 889 
Q 1547 409 2034 409 
Q 2525 409 2770 889 
Q 3016 1369 3016 2328 
Q 3016 3291 2770 3770 
Q 2525 4250 2034 4250 
z
M 2034 4750 
Q 2819 4750 3233 4129 
Q 3647 3509 3647 2328 
Q 3647 1150 3233 529 
Q 2819 -91 2034 -91 
Q 1250 -91 836 529 
Q 422 1150 422 2328 
Q 422 3509 836 4129 
Q 1250 4750 2034 4750 
z
" transform="scale(0.015625)"/>
       </defs>
       <use xlink:href="#DejaVuSans-30"/>
      </g>
     </g>
    </g>
    <g id="xtick_2">
     <g id="line2d_2">
      <g>
       <use xlink:href="#mce6f14ec86" x="139.069518" y="307.584" style="stroke: #000000; stroke-width: 0.8"/>
      </g>
     </g>
     <g id="text_2">
      <!-- 2 -->
      <g transform="translate(135.888268 322.182437)scale(0.1 -0.1)">
       <defs>
        <path id="DejaVuSans-32" d="M 1228 531 
L 3431 531 
L 3431 0 
L 469 0 
L 469 531 
Q 828 903 1448 1529 
Q 2069 2156 2228 2338 
Q 2531 2678 2651 2914 
Q 2772 3150 2772 3378 
Q 2772 3750 2511 3984 
Q 2250 4219 1831 4219 
Q 1534 4219 1204 4116 
Q 875 4013 500 3803 
L 500 4441 
Q 881 4594 1212 4672 
Q 1544 4750 1819 4750 
Q 2544 4750 2975 4387 
Q 3406 4025 3406 3419 
Q 3406 3131 3298 2873 
Q 3191 2616 2906 2266 
Q 2828 2175 2409 1742 
Q 1991 1309 1228 531 
z
" transform="scale(0.015625)"/>
       </defs>
       <use xlink:href="#DejaVuSans-32"/>
      </g>
     </g>
    </g>
    <g id="xtick_3">
     <g id="line2d_3">
      <g>
       <use xlink:href="#mce6f14ec86" x="200.546719" y="307.584" style="stroke: #000000; stroke-width: 0.8"/>
      </g>
     </g>
     <g id="text_3">
      <!-- 4 -->
      <g transform="translate(197.365469 322.182437)scale(0.1 -0.1)">
       <defs>
        <path id="DejaVuSans-34" d="M 2419 4116 
L 825 1625 
L 2419 1625 
L 2419 4116 
z
M 2253 4666 
L 3047 4666 
L 3047 1625 
L 3713 1625 
L 3713 1100 
L 3047 1100 
L 3047 0 
L 2419 0 
L 2419 1100 
L 313 1100 
L 313 1709 
L 2253 4666 
z
" transform="scale(0.015625)"/>
       </defs>
       <use xlink:href="#DejaVuSans-34"/>
      </g>
     </g>
    </g>
    <g id="xtick_4">
     <g id="line2d_4">
      <g>
       <use xlink:href="#mce6f14ec86" x="262.02392" y="307.584" style="stroke: #000000; stroke-width: 0.8"/>
      </g>
     </g>
     <g id="text_4">
      <!-- 6 -->
      <g transform="translate(258.84267 322.182437)scale(0.1 -0.1)">
       <defs>
        <path id="DejaVuSans-36" d="M 2113 2584 
Q 1688 2584 1439 2293 
Q 1191 2003 1191 1497 
Q 1191 994 1439 701 
Q 1688 409 2113 409 
Q 2538 409 2786 701 
Q 3034 994 3034 1497 
Q 3034 2003 2786 2293 
Q 2538 2584 2113 2584 
z
M 3366 4563 
L 3366 3988 
Q 3128 4100 2886 4159 
Q 2644 4219 2406 4219 
Q 1781 4219 1451 3797 
Q 1122 3375 1075 2522 
Q 1259 2794 1537 2939 
Q 1816 3084 2150 3084 
Q 2853 3084 3261 2657 
Q 3669 2231 3669 1497 
Q 3669 778 3244 343 
Q 2819 -91 2113 -91 
Q 1303 -91 875 529 
Q 447 1150 447 2328 
Q 447 3434 972 4092 
Q 1497 4750 2381 4750 
Q 2619 4750 2861 4703 
Q 3103 4656 3366 4563 
z
" transform="scale(0.015625)"/>
       </defs>
       <use xlink:href="#DejaVuSans-36"/>
      </g>
     </g>
    </g>
    <g id="xtick_5">
     <g id="line2d_5">
      <g>
       <use xlink:href="#mce6f14ec86" x="323.501121" y="307.584" style="stroke: #000000; stroke-width: 0.8"/>
      </g>
     </g>
     <g id="text_5">
      <!-- 8 -->
      <g transform="translate(320.319871 322.182437)scale(0.1 -0.1)">
       <defs>
        <path id="DejaVuSans-38" d="M 2034 2216 
Q 1584 2216 1326 1975 
Q 1069 1734 1069 1313 
Q 1069 891 1326 650 
Q 1584 409 2034 409 
Q 2484 409 2743 651 
Q 3003 894 3003 1313 
Q 3003 1734 2745 1975 
Q 2488 2216 2034 2216 
z
M 1403 2484 
Q 997 2584 770 2862 
Q 544 3141 544 3541 
Q 544 4100 942 4425 
Q 1341 4750 2034 4750 
Q 2731 4750 3128 4425 
Q 3525 4100 3525 3541 
Q 3525 3141 3298 2862 
Q 3072 2584 2669 2484 
Q 3125 2378 3379 2068 
Q 3634 1759 3634 1313 
Q 3634 634 3220 271 
Q 2806 -91 2034 -91 
Q 1263 -91 848 271 
Q 434 634 434 1313 
Q 434 1759 690 2068 
Q 947 2378 1403 2484 
z
M 1172 3481 
Q 1172 3119 1398 2916 
Q 1625 2713 2034 2713 
Q 2441 2713 2670 2916 
Q 2900 3119 2900 3481 
Q 2900 3844 2670 4047 
Q 2441 4250 2034 4250 
Q 1625 4250 1398 4047 
Q 1172 3844 1172 3481 
z
" transform="scale(0.015625)"/>
       </defs>
       <use xlink:href="#DejaVuSans-38"/>
      </g>
     </g>
    </g>
    <g id="xtick_6">
     <g id="line2d_6">
      <g>
       <use xlink:href="#mce6f14ec86" x="384.978322" y="307.584" style="stroke: #000000; stroke-width: 0.8"/>
      </g>
     </g>
     <g id="text_6">
      <!-- 10 -->
      <g transform="translate(378.615822 322.182437)scale(0.1 -0.1)">
       <defs>
        <path id="DejaVuSans-31" d="M 794 531 
L 1825 531 
L 1825 4091 
L 703 3866 
L 703 4441 
L 1819 4666 
L 2450 4666 
L 2450 531 
L 3481 531 
L 3481 0 
L 794 0 
L 794 531 
z
" transform="scale(0.015625)"/>
       </defs>
       <use xlink:href="#DejaVuSans-31"/>
       <use xlink:href="#DejaVuSans-30" x="63.623047"/>
      </g>
     </g>
    </g>
    <g id="text_7">
     <!-- x -->
     <g transform="translate(233.200625 335.860562)scale(0.1 -0.1)">
      <defs>
       <path id="DejaVuSans-78" d="M 3513 3500 
L 2247 1797 
L 3578 0 
L 2900 0 
L 1881 1375 
L 863 0 
L 184 0 
L 1544 1831 
L 300 3500 
L 978 3500 
L 1906 2253 
L 2834 3500 
L 3513 3500 
z
" transform="scale(0.015625)"/>
      </defs>
      <use xlink:href="#DejaVuSans-78"/>
     </g>
    </g>
   </g>
   <g id="matplotlib.axis_2">
    <g id="ytick_1">
     <g id="line2d_7">
      <defs>
       <path id="me4be7289ea" d="M 0 0 
L -3.5 0 
" style="stroke: #000000; stroke-width: 0.8"/>
      </defs>
      <g>
       <use xlink:href="#me4be7289ea" x="57.6" y="288.312128" style="stroke: #000000; stroke-width: 0.8"/>
      </g>
     </g>
     <g id="text_8">
      <!-- 10 -->
      <g transform="translate(37.875 292.111347)scale(0.1 -0.1)">
       <use xlink:href="#DejaVuSans-31"/>
       <use xlink:href="#DejaVuSans-30" x="63.623047"/>
      </g>
     </g>
    </g>
    <g id="ytick_2">
     <g id="line2d_8">
      <g>
       <use xlink:href="#me4be7289ea" x="57.6" y="249.501997" style="stroke: #000000; stroke-width: 0.8"/>
      </g>
     </g>
     <g id="text_9">
      <!-- 15 -->
      <g transform="translate(37.875 253.301216)scale(0.1 -0.1)">
       <defs>
        <path id="DejaVuSans-35" d="M 691 4666 
L 3169 4666 
L 3169 4134 
L 1269 4134 
L 1269 2991 
Q 1406 3038 1543 3061 
Q 1681 3084 1819 3084 
Q 2600 3084 3056 2656 
Q 3513 2228 3513 1497 
Q 3513 744 3044 326 
Q 2575 -91 1722 -91 
Q 1428 -91 1123 -41 
Q 819 9 494 109 
L 494 744 
Q 775 591 1075 516 
Q 1375 441 1709 441 
Q 2250 441 2565 725 
Q 2881 1009 2881 1497 
Q 2881 1984 2565 2268 
Q 2250 2553 1709 2553 
Q 1456 2553 1204 2497 
Q 953 2441 691 2322 
L 691 4666 
z
" transform="scale(0.015625)"/>
       </defs>
       <use xlink:href="#DejaVuSans-31"/>
       <use xlink:href="#DejaVuSans-35" x="63.623047"/>
      </g>
     </g>
    </g>
    <g id="ytick_3">
     <g id="line2d_9">
      <g>
       <use xlink:href="#me4be7289ea" x="57.6" y="210.691865" style="stroke: #000000; stroke-width: 0.8"/>
      </g>
     </g>
     <g id="text_10">
      <!-- 20 -->
      <g transform="translate(37.875 214.491084)scale(0.1 -0.1)">
       <use xlink:href="#DejaVuSans-32"/>
       <use xlink:href="#DejaVuSans-30" x="63.623047"/>
      </g>
     </g>
    </g>
    <g id="ytick_4">
     <g id="line2d_10">
      <g>
       <use xlink:href="#me4be7289ea" x="57.6" y="171.881733" style="stroke: #000000; stroke-width: 0.8"/>
      </g>
     </g>
     <g id="text_11">
      <!-- 25 -->
      <g transform="translate(37.875 175.680952)scale(0.1 -0.1)">
       <use xlink:href="#DejaVuSans-32"/>
       <use xlink:href="#DejaVuSans-35" x="63.623047"/>
      </g>
     </g>
    </g>
    <g id="ytick_5">
     <g id="line2d_11">
      <g>
       <use xlink:href="#me4be7289ea" x="57.6" y="133.071602" style="stroke: #000000; stroke-width: 0.8"/>
      </g>
     </g>
     <g id="text_12">
      <!-- 30 -->
      <g transform="translate(37.875 136.870821)scale(0.1 -0.1)">
       <defs>
        <path id="DejaVuSans-33" d="M 2597 2516 
Q 3050 2419 3304 2112 
Q 3559 1806 3559 1356 
Q 3559 666 3084 287 
Q 2609 -91 1734 -91 
Q 1441 -91 1130 -33 
Q 819 25 488 141 
L 488 750 
Q 750 597 1062 519 
Q 1375 441 1716 441 
Q 2309 441 2620 675 
Q 2931 909 2931 1356 
Q 2931 1769 2642 2001 
Q 2353 2234 1838 2234 
L 1294 2234 
L 1294 2753 
L 1863 2753 
Q 2328 2753 2575 2939 
Q 2822 3125 2822 3475 
Q 2822 3834 2567 4026 
Q 2313 4219 1838 4219 
Q 1578 4219 1281 4162 
Q 984 4106 628 3988 
L 628 4550 
Q 988 4650 1302 4700 
Q 1616 4750 1894 4750 
Q 2613 4750 3031 4423 
Q 3450 4097 3450 3541 
Q 3450 3153 3228 2886 
Q 3006 2619 2597 2516 
z
" transform="scale(0.015625)"/>
       </defs>
       <use xlink:href="#DejaVuSans-33"/>
       <use xlink:href="#DejaVuSans-30" x="63.623047"/>
      </g>
     </g>
    </g>
    <g id="ytick_6">
     <g id="line2d_12">
      <g>
       <use xlink:href="#me4be7289ea" x="57.6" y="94.26147" style="stroke: #000000; stroke-width: 0.8"/>
      </g>
     </g>
     <g id="text_13">
      <!-- 35 -->
      <g transform="translate(37.875 98.060689)scale(0.1 -0.1)">
       <use xlink:href="#DejaVuSans-33"/>
       <use xlink:href="#DejaVuSans-35" x="63.623047"/>
      </g>
     </g>
    </g>
    <g id="ytick_7">
     <g id="line2d_13">
      <g>
       <use xlink:href="#me4be7289ea" x="57.6" y="55.451339" style="stroke: #000000; stroke-width: 0.8"/>
      </g>
     </g>
     <g id="text_14">
      <!-- 40 -->
      <g transform="translate(37.875 59.250557)scale(0.1 -0.1)">
       <use xlink:href="#DejaVuSans-34"/>
       <use xlink:href="#DejaVuSans-30" x="63.623047"/>
      </g>
     </g>
    </g>
    <g id="text_15">
     <!-- y -->
     <g transform="translate(31.795313 177.487375)rotate(-90)scale(0.1 -0.1)">
      <defs>
       <path id="DejaVuSans-79" d="M 2059 -325 
Q 1816 -950 1584 -1140 
Q 1353 -1331 966 -1331 
L 506 -1331 
L 506 -850 
L 844 -850 
Q 1081 -850 1212 -737 
Q 1344 -625 1503 -206 
L 1606 56 
L 191 3500 
L 800 3500 
L 1894 763 
L 2988 3500 
L 3597 3500 
L 2059 -325 
z
" transform="scale(0.015625)"/>
      </defs>
      <use xlink:href="#DejaVuSans-79"/>
     </g>
    </g>
   </g>
   <g id="line2d_14">
    <path d="M 73.832727 295.488 
L 78.106101 292.31237 
L 83.44315 288.346301 
L 81.86121 289.521873 
L 105.577051 271.898152 
L 95.967151 279.039463 
L 110.018582 268.597561 
L 115.840732 264.271003 
L 118.853603 262.032078 
L 140.639786 245.842325 
L 137.395848 248.252962 
L 139.145486 246.95277 
L 155.370688 234.895495 
L 165.42508 227.423873 
L 170.501993 223.651117 
L 160.404395 231.154845 
L 191.742683 207.866731 
L 173.572645 221.369253 
L 202.256939 200.053375 
L 205.547457 197.608124 
L 217.913209 188.418884 
L 220.417877 186.557615 
L 205.938467 197.317557 
L 221.916865 185.443687 
L 215.588121 190.146704 
L 244.555579 168.620401 
L 249.615148 164.860533 
L 234.047034 176.429513 
L 257.227491 159.203647 
L 263.186029 154.775738 
L 279.653406 142.538497 
L 271.274653 148.764918 
L 284.903178 138.637286 
L 280.342533 142.026393 
L 298.076097 128.848224 
L 292.120358 133.274053 
L 310.429163 119.66841 
L 317.103922 114.708263 
L 322.569115 110.646967 
L 336.944015 99.964689 
L 338.942312 98.479714 
L 333.416801 102.585833 
L 354.906896 86.616109 
L 334.845047 101.524474 
L 367.674042 77.128585 
L 351.989356 88.784192 
L 374.901279 71.757879 
L 386.693017 62.995201 
L 371.572663 74.231441 
L 398.487273 54.230651 
L 93.014151 281.233897 
L 145.675606 242.100106 
L 159.474118 231.846153 
L 201.215338 200.82741 
L 96.07859 278.956651 
L 197.053371 203.920251 
L 340.93651 96.997785 
L 203.241975 199.321375 
L 181.31158 215.618294 
L 91.995478 281.990893 
L 376.669812 70.443646 
L 291.594169 133.665075 
L 198.201369 203.067151 
L 189.243262 209.724101 
L 280.309221 142.051148 
L 86.274395 286.242345 
L 230.413541 179.129635 
L 175.193647 220.164653 
L 366.381177 78.089339 
L 172.407719 222.234933 
L 90.060781 283.428606 
L 131.481792 252.647816 
L 242.07578 170.46319 
L 218.997929 187.612807 
L 354.410365 86.985091 
L 320.089217 112.48983 
L 205.958481 197.302684 
L 300.472935 127.067085 
L 223.943837 183.937403 
L 344.56881 94.29855 
L 210.405282 193.998176 
L 268.418691 150.887241 
L 307.26027 122.023279 
L 183.411324 214.057932 
L 365.376974 78.835582 
L 173.60843 221.34266 
L 118.960535 261.952615 
L 281.97777 140.811216 
L 231.455143 178.3556 
L 354.599725 86.844374 
L 270.700857 149.191317 
L 104.358935 272.803359 
L 280.949292 141.575498 
L 330.531879 104.729677 
L 300.863647 126.776739 
L 269.741468 149.904259 
L 225.878289 182.499873 
L 196.726332 204.16328 
L 198.869966 202.570303 
L 361.98127 81.358999 
" clip-path="url(#p0e9cbee891)" style="fill: none; stroke: #1f77b4; stroke-width: 1.5; stroke-linecap: square"/>
   </g>
   <g id="patch_3">
    <path d="M 57.6 307.584 
L 57.6 41.472 
" style="fill: none; stroke: #000000; stroke-width: 0.8; stroke-linejoin: miter; stroke-linecap: square"/>
   </g>
   <g id="patch_4">
    <path d="M 414.72 307.584 
L 414.72 41.472 
" style="fill: none; stroke: #000000; stroke-width: 0.8; stroke-linejoin: miter; stroke-linecap: square"/>
   </g>
   <g id="patch_5">
    <path d="M 57.6 307.584 
L 414.72 307.584 
" style="fill: none; stroke: #000000; stroke-width: 0.8; stroke-linejoin: miter; stroke-linecap: square"/>
   </g>
   <g id="patch_6">
    <path d="M 57.6 41.472 
L 414.72 41.472 
" style="fill: none; stroke: #000000; stroke-width: 0.8; stroke-linejoin: miter; stroke-linecap: square"/>
   </g>
   <g id="text_16">
    <!-- best_a = 2.942849420683 -->
    <g style="fill: #ff0000" transform="translate(231.28532 279.131378)scale(0.08 -0.08)">
     <defs>
      <path id="DejaVuSans-62" d="M 3116 1747 
Q 3116 2381 2855 2742 
Q 2594 3103 2138 3103 
Q 1681 3103 1420 2742 
Q 1159 2381 1159 1747 
Q 1159 1113 1420 752 
Q 1681 391 2138 391 
Q 2594 391 2855 752 
Q 3116 1113 3116 1747 
z
M 1159 2969 
Q 1341 3281 1617 3432 
Q 1894 3584 2278 3584 
Q 2916 3584 3314 3078 
Q 3713 2572 3713 1747 
Q 3713 922 3314 415 
Q 2916 -91 2278 -91 
Q 1894 -91 1617 61 
Q 1341 213 1159 525 
L 1159 0 
L 581 0 
L 581 4863 
L 1159 4863 
L 1159 2969 
z
" transform="scale(0.015625)"/>
      <path id="DejaVuSans-65" d="M 3597 1894 
L 3597 1613 
L 953 1613 
Q 991 1019 1311 708 
Q 1631 397 2203 397 
Q 2534 397 2845 478 
Q 3156 559 3463 722 
L 3463 178 
Q 3153 47 2828 -22 
Q 2503 -91 2169 -91 
Q 1331 -91 842 396 
Q 353 884 353 1716 
Q 353 2575 817 3079 
Q 1281 3584 2069 3584 
Q 2775 3584 3186 3129 
Q 3597 2675 3597 1894 
z
M 3022 2063 
Q 3016 2534 2758 2815 
Q 2500 3097 2075 3097 
Q 1594 3097 1305 2825 
Q 1016 2553 972 2059 
L 3022 2063 
z
" transform="scale(0.015625)"/>
      <path id="DejaVuSans-73" d="M 2834 3397 
L 2834 2853 
Q 2591 2978 2328 3040 
Q 2066 3103 1784 3103 
Q 1356 3103 1142 2972 
Q 928 2841 928 2578 
Q 928 2378 1081 2264 
Q 1234 2150 1697 2047 
L 1894 2003 
Q 2506 1872 2764 1633 
Q 3022 1394 3022 966 
Q 3022 478 2636 193 
Q 2250 -91 1575 -91 
Q 1294 -91 989 -36 
Q 684 19 347 128 
L 347 722 
Q 666 556 975 473 
Q 1284 391 1588 391 
Q 1994 391 2212 530 
Q 2431 669 2431 922 
Q 2431 1156 2273 1281 
Q 2116 1406 1581 1522 
L 1381 1569 
Q 847 1681 609 1914 
Q 372 2147 372 2553 
Q 372 3047 722 3315 
Q 1072 3584 1716 3584 
Q 2034 3584 2315 3537 
Q 2597 3491 2834 3397 
z
" transform="scale(0.015625)"/>
      <path id="DejaVuSans-74" d="M 1172 4494 
L 1172 3500 
L 2356 3500 
L 2356 3053 
L 1172 3053 
L 1172 1153 
Q 1172 725 1289 603 
Q 1406 481 1766 481 
L 2356 481 
L 2356 0 
L 1766 0 
Q 1100 0 847 248 
Q 594 497 594 1153 
L 594 3053 
L 172 3053 
L 172 3500 
L 594 3500 
L 594 4494 
L 1172 4494 
z
" transform="scale(0.015625)"/>
      <path id="DejaVuSans-5f" d="M 3263 -1063 
L 3263 -1509 
L -63 -1509 
L -63 -1063 
L 3263 -1063 
z
" transform="scale(0.015625)"/>
      <path id="DejaVuSans-61" d="M 2194 1759 
Q 1497 1759 1228 1600 
Q 959 1441 959 1056 
Q 959 750 1161 570 
Q 1363 391 1709 391 
Q 2188 391 2477 730 
Q 2766 1069 2766 1631 
L 2766 1759 
L 2194 1759 
z
M 3341 1997 
L 3341 0 
L 2766 0 
L 2766 531 
Q 2569 213 2275 61 
Q 1981 -91 1556 -91 
Q 1019 -91 701 211 
Q 384 513 384 1019 
Q 384 1609 779 1909 
Q 1175 2209 1959 2209 
L 2766 2209 
L 2766 2266 
Q 2766 2663 2505 2880 
Q 2244 3097 1772 3097 
Q 1472 3097 1187 3025 
Q 903 2953 641 2809 
L 641 3341 
Q 956 3463 1253 3523 
Q 1550 3584 1831 3584 
Q 2591 3584 2966 3190 
Q 3341 2797 3341 1997 
z
" transform="scale(0.015625)"/>
      <path id="DejaVuSans-20" transform="scale(0.015625)"/>
      <path id="DejaVuSans-3d" d="M 678 2906 
L 4684 2906 
L 4684 2381 
L 678 2381 
L 678 2906 
z
M 678 1631 
L 4684 1631 
L 4684 1100 
L 678 1100 
L 678 1631 
z
" transform="scale(0.015625)"/>
      <path id="DejaVuSans-2e" d="M 684 794 
L 1344 794 
L 1344 0 
L 684 0 
L 684 794 
z
" transform="scale(0.015625)"/>
      <path id="DejaVuSans-39" d="M 703 97 
L 703 672 
Q 941 559 1184 500 
Q 1428 441 1663 441 
Q 2288 441 2617 861 
Q 2947 1281 2994 2138 
Q 2813 1869 2534 1725 
Q 2256 1581 1919 1581 
Q 1219 1581 811 2004 
Q 403 2428 403 3163 
Q 403 3881 828 4315 
Q 1253 4750 1959 4750 
Q 2769 4750 3195 4129 
Q 3622 3509 3622 2328 
Q 3622 1225 3098 567 
Q 2575 -91 1691 -91 
Q 1453 -91 1209 -44 
Q 966 3 703 97 
z
M 1959 2075 
Q 2384 2075 2632 2365 
Q 2881 2656 2881 3163 
Q 2881 3666 2632 3958 
Q 2384 4250 1959 4250 
Q 1534 4250 1286 3958 
Q 1038 3666 1038 3163 
Q 1038 2656 1286 2365 
Q 1534 2075 1959 2075 
z
" transform="scale(0.015625)"/>
     </defs>
     <use xlink:href="#DejaVuSans-62"/>
     <use xlink:href="#DejaVuSans-65" x="63.476562"/>
     <use xlink:href="#DejaVuSans-73" x="125"/>
     <use xlink:href="#DejaVuSans-74" x="177.099609"/>
     <use xlink:href="#DejaVuSans-5f" x="216.308594"/>
     <use xlink:href="#DejaVuSans-61" x="266.308594"/>
     <use xlink:href="#DejaVuSans-20" x="327.587891"/>
     <use xlink:href="#DejaVuSans-3d" x="359.375"/>
     <use xlink:href="#DejaVuSans-20" x="443.164062"/>
     <use xlink:href="#DejaVuSans-32" x="474.951172"/>
     <use xlink:href="#DejaVuSans-2e" x="538.574219"/>
     <use xlink:href="#DejaVuSans-39" x="570.361328"/>
     <use xlink:href="#DejaVuSans-34" x="633.984375"/>
     <use xlink:href="#DejaVuSans-32" x="697.607422"/>
     <use xlink:href="#DejaVuSans-38" x="761.230469"/>
     <use xlink:href="#DejaVuSans-34" x="824.853516"/>
     <use xlink:href="#DejaVuSans-39" x="888.476562"/>
     <use xlink:href="#DejaVuSans-34" x="952.099609"/>
     <use xlink:href="#DejaVuSans-32" x="1015.722656"/>
     <use xlink:href="#DejaVuSans-30" x="1079.345703"/>
     <use xlink:href="#DejaVuSans-36" x="1142.96875"/>
     <use xlink:href="#DejaVuSans-38" x="1206.591797"/>
     <use xlink:href="#DejaVuSans-33" x="1270.214844"/>
    </g>
    <!-- best_b = 9.435451030716763 -->
    <g style="fill: #ff0000" transform="translate(231.28532 288.312128)scale(0.08 -0.08)">
     <defs>
      <path id="DejaVuSans-37" d="M 525 4666 
L 3525 4666 
L 3525 4397 
L 1831 0 
L 1172 0 
L 2766 4134 
L 525 4134 
L 525 4666 
z
" transform="scale(0.015625)"/>
     </defs>
     <use xlink:href="#DejaVuSans-62"/>
     <use xlink:href="#DejaVuSans-65" x="63.476562"/>
     <use xlink:href="#DejaVuSans-73" x="125"/>
     <use xlink:href="#DejaVuSans-74" x="177.099609"/>
     <use xlink:href="#DejaVuSans-5f" x="216.308594"/>
     <use xlink:href="#DejaVuSans-62" x="266.308594"/>
     <use xlink:href="#DejaVuSans-20" x="329.785156"/>
     <use xlink:href="#DejaVuSans-3d" x="361.572266"/>
     <use xlink:href="#DejaVuSans-20" x="445.361328"/>
     <use xlink:href="#DejaVuSans-39" x="477.148438"/>
     <use xlink:href="#DejaVuSans-2e" x="540.771484"/>
     <use xlink:href="#DejaVuSans-34" x="572.558594"/>
     <use xlink:href="#DejaVuSans-33" x="636.181641"/>
     <use xlink:href="#DejaVuSans-35" x="699.804688"/>
     <use xlink:href="#DejaVuSans-34" x="763.427734"/>
     <use xlink:href="#DejaVuSans-35" x="827.050781"/>
     <use xlink:href="#DejaVuSans-31" x="890.673828"/>
     <use xlink:href="#DejaVuSans-30" x="954.296875"/>
     <use xlink:href="#DejaVuSans-33" x="1017.919922"/>
     <use xlink:href="#DejaVuSans-30" x="1081.542969"/>
     <use xlink:href="#DejaVuSans-37" x="1145.166016"/>
     <use xlink:href="#DejaVuSans-31" x="1208.789062"/>
     <use xlink:href="#DejaVuSans-36" x="1272.412109"/>
     <use xlink:href="#DejaVuSans-37" x="1336.035156"/>
     <use xlink:href="#DejaVuSans-36" x="1399.658203"/>
     <use xlink:href="#DejaVuSans-33" x="1463.28125"/>
    </g>
   </g>
   <g id="text_17">
    <!-- RANSAC -->
    <g transform="translate(211.527187 35.472)scale(0.12 -0.12)">
     <defs>
      <path id="DejaVuSans-52" d="M 2841 2188 
Q 3044 2119 3236 1894 
Q 3428 1669 3622 1275 
L 4263 0 
L 3584 0 
L 2988 1197 
Q 2756 1666 2539 1819 
Q 2322 1972 1947 1972 
L 1259 1972 
L 1259 0 
L 628 0 
L 628 4666 
L 2053 4666 
Q 2853 4666 3247 4331 
Q 3641 3997 3641 3322 
Q 3641 2881 3436 2590 
Q 3231 2300 2841 2188 
z
M 1259 4147 
L 1259 2491 
L 2053 2491 
Q 2509 2491 2742 2702 
Q 2975 2913 2975 3322 
Q 2975 3731 2742 3939 
Q 2509 4147 2053 4147 
L 1259 4147 
z
" transform="scale(0.015625)"/>
      <path id="DejaVuSans-41" d="M 2188 4044 
L 1331 1722 
L 3047 1722 
L 2188 4044 
z
M 1831 4666 
L 2547 4666 
L 4325 0 
L 3669 0 
L 3244 1197 
L 1141 1197 
L 716 0 
L 50 0 
L 1831 4666 
z
" transform="scale(0.015625)"/>
      <path id="DejaVuSans-4e" d="M 628 4666 
L 1478 4666 
L 3547 763 
L 3547 4666 
L 4159 4666 
L 4159 0 
L 3309 0 
L 1241 3903 
L 1241 0 
L 628 0 
L 628 4666 
z
" transform="scale(0.015625)"/>
      <path id="DejaVuSans-53" d="M 3425 4513 
L 3425 3897 
Q 3066 4069 2747 4153 
Q 2428 4238 2131 4238 
Q 1616 4238 1336 4038 
Q 1056 3838 1056 3469 
Q 1056 3159 1242 3001 
Q 1428 2844 1947 2747 
L 2328 2669 
Q 3034 2534 3370 2195 
Q 3706 1856 3706 1288 
Q 3706 609 3251 259 
Q 2797 -91 1919 -91 
Q 1588 -91 1214 -16 
Q 841 59 441 206 
L 441 856 
Q 825 641 1194 531 
Q 1563 422 1919 422 
Q 2459 422 2753 634 
Q 3047 847 3047 1241 
Q 3047 1584 2836 1778 
Q 2625 1972 2144 2069 
L 1759 2144 
Q 1053 2284 737 2584 
Q 422 2884 422 3419 
Q 422 4038 858 4394 
Q 1294 4750 2059 4750 
Q 2388 4750 2728 4690 
Q 3069 4631 3425 4513 
z
" transform="scale(0.015625)"/>
      <path id="DejaVuSans-43" d="M 4122 4306 
L 4122 3641 
Q 3803 3938 3442 4084 
Q 3081 4231 2675 4231 
Q 1875 4231 1450 3742 
Q 1025 3253 1025 2328 
Q 1025 1406 1450 917 
Q 1875 428 2675 428 
Q 3081 428 3442 575 
Q 3803 722 4122 1019 
L 4122 359 
Q 3791 134 3420 21 
Q 3050 -91 2638 -91 
Q 1578 -91 968 557 
Q 359 1206 359 2328 
Q 359 3453 968 4101 
Q 1578 4750 2638 4750 
Q 3056 4750 3426 4639 
Q 3797 4528 4122 4306 
z
" transform="scale(0.015625)"/>
     </defs>
     <use xlink:href="#DejaVuSans-52"/>
     <use xlink:href="#DejaVuSans-41" x="65.482422"/>
     <use xlink:href="#DejaVuSans-4e" x="133.890625"/>
     <use xlink:href="#DejaVuSans-53" x="208.695312"/>
     <use xlink:href="#DejaVuSans-41" x="274.046875"/>
     <use xlink:href="#DejaVuSans-43" x="340.705078"/>
    </g>
   </g>
  </g>
 </g>
 <defs>
  <clipPath id="p0e9cbee891">
   <rect x="57.6" y="41.472" width="357.12" height="266.112"/>
  </clipPath>
 </defs>
</svg>
